<svg width="223" height="72" viewBox="0 0 223 72" fill="none" xmlns="http://www.w3.org/2000/svg">
<path d="M31.1848 10.888L31.6531 10.0045L31.6531 10.0045L31.1848 10.888ZM39.3768 18.824L38.5052 19.3143L38.5088 19.3208L38.5126 19.3272L39.3768 18.824ZM39.3768 42.248L38.5098 41.7495L38.5052 41.7577L39.3768 42.248ZM31.1208 50.184L30.6567 49.2982L30.6524 49.3005L31.1208 50.184ZM1.93675 53H0.93675V54H1.93675V53ZM1.93675 8.072V7.072H0.93675V8.072H1.93675ZM12.8808 17.416V16.416H11.8808V17.416H12.8808ZM12.8808 43.528H11.8808V44.528H12.8808V43.528ZM18.7688 9.072C23.3711 9.072 27.3434 9.98344 30.7164 11.7715L31.6531 10.0045C27.9434 8.03789 23.6384 7.072 18.7688 7.072V9.072ZM30.7164 11.7715C34.0926 13.5613 36.6814 16.072 38.5052 19.3143L40.2483 18.3337C38.2321 14.7493 35.3596 11.9693 31.6531 10.0045L30.7164 11.7715ZM38.5126 19.3272C40.3746 22.525 41.3208 26.2507 41.3208 30.536H43.3208C43.3208 25.9467 42.3042 21.8643 40.2409 18.3208L38.5126 19.3272ZM41.3208 30.536C41.3208 34.7765 40.3755 38.5049 38.5098 41.7495L40.2437 42.7465C42.3033 39.1644 43.3208 35.0848 43.3208 30.536H41.3208ZM38.5052 41.7577C36.6832 44.9968 34.0755 47.5074 30.6567 49.2982L31.5848 51.0698C35.334 49.1059 38.2303 46.3259 40.2483 42.7383L38.5052 41.7577ZM30.6524 49.3005C27.2781 51.0892 23.3267 52 18.7688 52V54C23.5974 54 27.8807 53.0334 31.5891 51.0675L30.6524 49.3005ZM18.7688 52H1.93675V54H18.7688V52ZM2.93675 53V8.072H0.93675V53H2.93675ZM1.93675 9.072H18.7688V7.072H1.93675V9.072ZM18.0648 44.528C22.3882 44.528 25.8896 43.3423 28.4292 40.8497L27.0283 39.4223C24.9599 41.4524 22.0186 42.528 18.0648 42.528V44.528ZM28.4292 40.8497C30.975 38.3511 32.1848 34.8636 32.1848 30.536H30.1848C30.1848 34.4857 29.0905 37.3982 27.0283 39.4223L28.4292 40.8497ZM32.1848 30.536C32.1848 26.2074 30.9747 22.7037 28.4359 20.1649L27.0216 21.5791C29.0909 23.6483 30.1848 26.5873 30.1848 30.536H32.1848ZM28.4359 20.1649C25.8971 17.6261 22.3934 16.416 18.0648 16.416V18.416C22.0135 18.416 24.9524 19.5099 27.0216 21.5791L28.4359 20.1649ZM18.0648 16.416H12.8808V18.416H18.0648V16.416ZM11.8808 17.416V43.528H13.8808V17.416H11.8808ZM12.8808 44.528H18.0648V42.528H12.8808V44.528ZM81.9088 37.768V38.768H82.8L82.9022 37.8826L81.9088 37.768ZM57.1408 37.768V36.768H56.0609L56.1437 37.8447L57.1408 37.768ZM59.2528 42.888L58.5582 43.6074L58.5708 43.6196L58.5838 43.6313L59.2528 42.888ZM69.6208 41.16V40.16H68.9817L68.7133 40.7399L69.6208 41.16ZM81.2688 41.16L82.2379 41.4067L82.5552 40.16H81.2688V41.16ZM78.0048 47.496L77.2393 46.8523L77.2308 46.8628L78.0048 47.496ZM72.1808 51.912L72.5946 52.8224L72.1808 51.912ZM54.9648 51.272L54.4849 52.1494L54.4849 52.1494L54.9648 51.272ZM48.5648 44.872L49.4395 44.3875L49.4395 44.3875L48.5648 44.872ZM48.5008 25.416L47.6259 24.9315L47.6203 24.9419L48.5008 25.416ZM54.9008 19.016L55.3806 19.8934L55.3806 19.8934L54.9008 19.016ZM73.5248 18.952L73.0498 19.832L73.0498 19.832L73.5248 18.952ZM79.7968 25.16L78.9225 25.6457L78.9285 25.6561L79.7968 25.16ZM70.9008 31.688V32.688H71.9008V31.688H70.9008ZM68.9808 27.208L69.6357 26.4523L69.6357 26.4523L68.9808 27.208ZM59.5088 27.144L58.8686 26.3758L58.8621 26.3811L58.8558 26.3866L59.5088 27.144ZM57.2048 31.688L56.2161 31.5376L56.0411 32.688H57.2048V31.688ZM81.1007 34.568C81.1007 35.5504 81.0393 36.5787 80.9153 37.6534L82.9022 37.8826C83.0342 36.7386 83.1007 35.6336 83.1007 34.568H81.1007ZM81.9088 36.768H57.1408V38.768H81.9088V36.768ZM56.1437 37.8447C56.3275 40.2339 57.0981 42.1977 58.5582 43.6074L59.9473 42.1686C58.9328 41.189 58.2954 39.7395 58.1378 37.6913L56.1437 37.8447ZM58.5838 43.6313C60.0601 44.96 61.8607 45.616 63.9248 45.616V43.616C62.3195 43.616 61.0054 43.12 59.9217 42.1447L58.5838 43.6313ZM63.9248 45.616C65.4311 45.616 66.7774 45.2974 67.9155 44.6069C69.0582 43.9136 69.9237 42.8858 70.5282 41.5801L68.7133 40.7399C68.2511 41.7382 67.634 42.4384 66.878 42.8971C66.1174 43.3586 65.1491 43.616 63.9248 43.616V45.616ZM69.6208 42.16H81.2688V40.16H69.6208V42.16ZM80.2997 40.9133C79.74 43.1121 78.7224 45.0888 77.2394 46.8524L78.7701 48.1396C80.4444 46.1485 81.6029 43.9013 82.2379 41.4067L80.2997 40.9133ZM77.2308 46.8628C75.798 48.6139 73.9829 49.9944 71.7669 51.0016L72.5946 52.8224C75.072 51.6963 77.1395 50.1328 78.7787 48.1292L77.2308 46.8628ZM71.7669 51.0016C69.5657 52.0022 67.0853 52.512 64.3088 52.512V54.512C67.3349 54.512 70.1025 53.9551 72.5946 52.8224L71.7669 51.0016ZM64.3088 52.512C60.9566 52.512 58.0106 51.7979 55.4446 50.3946L54.4849 52.1494C57.3802 53.7327 60.6635 54.512 64.3088 54.512V52.512ZM55.4446 50.3946C52.8834 48.994 50.8856 46.9984 49.4395 44.3875L47.69 45.3565C49.3159 48.2923 51.5848 50.5634 54.4849 52.1494L55.4446 50.3946ZM49.4395 44.3875C47.9987 41.786 47.2608 38.7156 47.2608 35.144H45.2608C45.2608 38.9964 46.0588 42.4114 47.69 45.3565L49.4395 44.3875ZM47.2608 35.144C47.2608 31.5679 47.9793 28.4937 49.3812 25.8901L47.6203 24.9419C46.0356 27.8849 45.2608 31.2961 45.2608 35.144H47.2608ZM49.3755 25.9005C50.8216 23.2896 52.8194 21.294 55.3806 19.8934L54.4209 18.1386C51.5208 19.7246 49.2519 21.9957 47.626 24.9315L49.3755 25.9005ZM55.3806 19.8934C57.9449 18.491 60.9117 17.776 64.3088 17.776V15.776C60.6231 15.776 57.318 16.5543 54.4209 18.1386L55.3806 19.8934ZM64.3088 17.776C67.621 17.776 70.526 18.47 73.0498 19.832L73.9997 18.072C71.1475 16.5327 67.9085 15.776 64.3088 15.776V17.776ZM73.0498 19.832C75.5686 21.1914 77.5213 23.1233 78.9226 25.6456L80.6709 24.6744C79.0855 21.8207 76.8569 19.6139 73.9997 18.072L73.0498 19.832ZM78.9285 25.6561C80.3654 28.1707 81.1007 31.1303 81.1007 34.568H83.1007C83.1007 30.8377 82.3001 27.5253 80.665 24.6639L78.9285 25.6561ZM71.9008 31.688C71.9008 29.5559 71.1602 27.7735 69.6357 26.4523L68.3258 27.9637C69.3613 28.8611 69.9008 30.0654 69.9008 31.688H71.9008ZM69.6357 26.4523C68.1496 25.1643 66.3071 24.544 64.1808 24.544V26.544C65.8944 26.544 67.2519 27.033 68.3258 27.9637L69.6357 26.4523ZM64.1808 24.544C62.1374 24.544 60.3468 25.1439 58.8686 26.3758L60.1489 27.9122C61.2307 27.0108 62.5547 26.544 64.1808 26.544V24.544ZM58.8558 26.3866C57.401 27.6408 56.5426 29.3919 56.2161 31.5376L58.1934 31.8384C58.4642 30.0588 59.1419 28.7806 60.1617 27.9014L58.8558 26.3866ZM57.2048 32.688H70.9008V30.688H57.2048V32.688ZM94.0823 51.912L94.4839 50.9962L94.4839 50.9962L94.0823 51.912ZM88.3223 47.56L87.5222 48.16L87.5289 48.1688L88.3223 47.56ZM85.9543 41.288V40.288H84.8774L84.957 41.3619L85.9543 41.288ZM96.7703 41.288L97.7649 41.1851L97.6721 40.288H96.7703V41.288ZM98.4983 44.296L99.0983 43.496L99.0983 43.496L98.4983 44.296ZM105.41 44.68L105.987 45.497L105.996 45.4907L105.41 44.68ZM104.962 40.328L104.53 41.2295L104.544 41.2367L104.56 41.2433L104.962 40.328ZM99.7783 38.664L100.021 37.6939L100.013 37.6919L100.005 37.6902L99.7783 38.664ZM93.3783 36.808L93.0069 37.7365L93.017 37.7405L93.0271 37.7443L93.3783 36.808ZM88.9623 33.672L88.2014 34.3209L88.2062 34.3266L88.2111 34.3321L88.9623 33.672ZM88.7703 22.28L87.9414 21.7205L87.9382 21.7253L88.7703 22.28ZM93.7623 18.248L93.3577 17.3334L93.3511 17.3364L93.7623 18.248ZM112.194 20.104L111.539 20.8597L111.546 20.865L112.194 20.104ZM116.674 28.936V29.936H117.784L117.669 28.8319L116.674 28.936ZM106.562 28.936L105.572 29.0726L105.691 29.936H106.562V28.936ZM104.898 25.992L104.269 26.7692L104.278 26.7764L104.287 26.7833L104.898 25.992ZM98.3703 25.672L98.9368 26.496L98.9538 26.4844L98.9703 26.472L98.3703 25.672ZM98.9463 29.96L98.5135 30.8615L98.5203 30.8648L98.5272 30.868L98.9463 29.96ZM104.066 31.496L104.316 30.5277L104.3 30.5235L104.283 30.5198L104.066 31.496ZM110.53 33.544L110.151 34.4692L110.161 34.4734L110.171 34.4773L110.53 33.544ZM114.882 36.744L114.112 37.382L114.122 37.394L114.132 37.4056L114.882 36.744ZM116.866 42.632H117.866V42.6234L117.866 42.6148L116.866 42.632ZM115.074 48.264L114.262 47.6808L114.259 47.6848L115.074 48.264ZM110.018 52.104L109.629 51.183L109.622 51.1858L110.018 52.104ZM102.402 52.512C99.4022 52.512 96.7693 51.9986 94.4839 50.9962L93.6806 52.8278C96.2592 53.9588 99.1729 54.512 102.402 54.512V52.512ZM94.4839 50.9962C92.1831 49.9871 90.4066 48.6335 89.1156 46.9512L87.5289 48.1688C89.0539 50.1559 91.1174 51.7036 93.6806 52.8278L94.4839 50.9962ZM89.1223 46.96C87.827 45.233 87.1078 43.3243 86.9515 41.2141L84.957 41.3619C85.142 43.8597 86.0015 46.1323 87.5223 48.16L89.1223 46.96ZM85.9543 42.288H96.7703V40.288H85.9543V42.288ZM95.7756 41.3909C95.9332 42.9144 96.6586 44.1663 97.8983 45.096L99.0983 43.496C98.2899 42.8897 97.8633 42.1362 97.7649 41.1851L95.7756 41.3909ZM97.8983 45.096C99.1231 46.0146 100.602 46.448 102.274 46.448V44.448C100.96 44.448 99.9214 44.1134 99.0983 43.496L97.8983 45.096ZM102.274 46.448C103.742 46.448 105.024 46.1765 105.987 45.497L104.834 43.863C104.346 44.2075 103.537 44.448 102.274 44.448V46.448ZM105.996 45.4907C106.991 44.772 107.562 43.7814 107.562 42.568H105.562C105.562 43.0613 105.366 43.4786 104.825 43.8693L105.996 45.4907ZM107.562 42.568C107.562 41.8728 107.378 41.2212 106.976 40.6588C106.58 40.1046 106.019 39.7005 105.365 39.4127L104.56 41.2433C104.972 41.4248 105.211 41.6287 105.349 41.8212C105.48 42.0055 105.562 42.2392 105.562 42.568H107.562ZM105.395 39.4265C104.232 38.8682 102.421 38.294 100.021 37.6939L99.5357 39.6341C101.914 40.2287 103.559 40.7638 104.53 41.2295L105.395 39.4265ZM100.005 37.6902C97.4709 37.0988 95.3822 36.4915 93.7294 35.8717L93.0271 37.7443C94.7876 38.4045 96.9656 39.0346 99.551 39.6378L100.005 37.6902ZM93.7496 35.8795C92.1919 35.2564 90.8491 34.3042 89.7134 33.0119L88.2111 34.3321C89.55 35.8557 91.1513 36.9943 93.0069 37.7365L93.7496 35.8795ZM89.7231 33.0231C88.6787 31.7986 88.1063 30.1093 88.1063 27.848H86.1063C86.1063 30.4507 86.7711 32.644 88.2014 34.3209L89.7231 33.0231ZM88.1063 27.848C88.1063 25.9924 88.6052 24.3303 89.6023 22.8347L87.9382 21.7253C86.7166 23.5577 86.1063 25.6076 86.1063 27.848H88.1063ZM89.5991 22.8395C90.6316 21.3098 92.1392 20.077 94.1734 19.1596L93.3511 17.3364C91.0333 18.3817 89.2129 19.8368 87.9414 21.7205L89.5991 22.8395ZM94.1668 19.1625C96.2305 18.2497 98.7106 17.776 101.634 17.776V15.776C98.4992 15.776 95.7313 16.2836 93.3577 17.3335L94.1668 19.1625ZM101.634 17.776C105.952 17.776 109.213 18.8435 111.539 20.8597L112.849 19.3483C110.056 16.9272 106.276 15.776 101.634 15.776V17.776ZM111.546 20.865C113.937 22.9034 115.32 25.604 115.68 29.0401L117.669 28.8319C117.26 24.9294 115.657 21.742 112.843 19.343L111.546 20.865ZM116.674 27.936H106.562V29.936H116.674V27.936ZM107.553 28.7994C107.349 27.3178 106.667 26.0953 105.51 25.2007L104.287 26.7833C105.006 27.3393 105.435 28.0795 105.572 29.0726L107.553 28.7994ZM105.527 25.2148C104.407 24.3074 102.968 23.904 101.314 23.904V25.904C102.647 25.904 103.598 26.2259 104.269 26.7692L105.527 25.2148ZM101.314 23.904C99.9207 23.904 98.6933 24.1797 97.7703 24.872L98.9703 26.472C99.4125 26.1403 100.148 25.904 101.314 25.904V23.904ZM97.8037 24.848C96.8401 25.5104 96.3463 26.4852 96.3463 27.656H98.3463C98.3463 27.1201 98.5351 26.7722 98.9368 26.496L97.8037 24.848ZM96.3463 27.656C96.3463 28.3516 96.5308 29.003 96.9249 29.5704C97.3132 30.1295 97.8649 30.5502 98.5135 30.8615L99.379 29.0585C98.961 28.8578 98.7127 28.6385 98.5676 28.4296C98.4283 28.229 98.3463 27.9844 98.3463 27.656H96.3463ZM98.5272 30.868C99.7362 31.4259 101.527 31.9562 103.849 32.4722L104.283 30.5198C101.997 30.0118 100.375 29.518 99.3653 29.052L98.5272 30.868ZM103.816 32.4643C106.438 33.1407 108.545 33.8102 110.151 34.4692L110.91 32.6188C109.188 31.9124 106.985 31.2166 104.316 30.5277L103.816 32.4643ZM110.171 34.4773C111.661 35.0505 112.974 36.0088 114.112 37.382L115.652 36.106C114.315 34.4925 112.727 33.3175 110.889 32.6107L110.171 34.4773ZM114.132 37.4056C115.215 38.6329 115.827 40.3443 115.866 42.6492L117.866 42.6148C117.821 39.9704 117.109 37.7564 115.632 36.0824L114.132 37.4056ZM115.866 42.632C115.866 44.518 115.332 46.1905 114.262 47.6808L115.887 48.8472C117.206 47.0095 117.866 44.9273 117.866 42.632H115.866ZM114.259 47.6848C113.235 49.1258 111.713 50.3013 109.629 51.183L110.408 53.025C112.761 52.0294 114.609 50.6449 115.889 48.8432L114.259 47.6848ZM109.622 51.1858C107.596 52.0598 105.197 52.512 102.402 52.512V54.512C105.41 54.512 108.089 54.0255 110.414 53.0222L109.622 51.1858ZM124.33 11.912L123.636 12.6318L123.649 12.6444L123.662 12.6566L124.33 11.912ZM124.33 3.464L125.01 4.19679L125.011 4.19589L124.33 3.464ZM133.674 3.464L132.98 4.18384L132.993 4.19645L133.006 4.20857L133.674 3.464ZM133.674 11.912L134.354 12.6448L134.355 12.6439L133.674 11.912ZM134.506 17.288H135.506V16.288H134.506V17.288ZM134.506 53V54H135.506V53H134.506ZM123.562 53H122.562V54H123.562V53ZM123.562 17.288V16.288H122.562V17.288H123.562ZM129.066 12.576C127.351 12.576 126.023 12.087 124.997 11.1674L123.662 12.6566C125.111 13.9557 126.94 14.576 129.066 14.576V12.576ZM125.024 11.1922C124.025 10.2292 123.538 9.08129 123.538 7.688H121.538C121.538 9.62271 122.245 11.2908 123.636 12.6318L125.024 11.1922ZM123.538 7.688C123.538 6.24472 124.03 5.10715 125.01 4.19679L123.649 2.7312C122.24 4.03952 121.538 5.71795 121.538 7.688H123.538ZM125.011 4.19589C126.038 3.23982 127.362 2.736 129.066 2.736V0.735996C126.93 0.735996 125.096 1.38417 123.648 2.7321L125.011 4.19589ZM129.066 2.736C130.721 2.736 131.996 3.23559 132.98 4.18384L134.368 2.74415C132.962 1.3884 131.165 0.735996 129.066 0.735996V2.736ZM133.006 4.20857C134.026 5.12246 134.53 6.25674 134.53 7.688H136.53C136.53 5.70592 135.797 4.0242 134.341 2.71943L133.006 4.20857ZM134.53 7.688C134.53 9.06939 134.03 10.2138 132.992 11.1801L134.355 12.6439C135.792 11.3062 136.53 9.63461 136.53 7.688H134.53ZM132.993 11.1792C132.012 12.0908 130.732 12.576 129.066 12.576V14.576C131.154 14.576 132.947 13.9519 134.354 12.6448L132.993 11.1792ZM133.506 17.288V53H135.506V17.288H133.506ZM134.506 52H123.562V54H134.506V52ZM124.562 53V17.288H122.562V53H124.562ZM123.562 18.288H134.506V16.288H123.562V18.288ZM162.597 18.312L162.118 19.1899L162.126 19.1943L162.597 18.312ZM167.013 22.344L166.161 22.8681L168.013 25.877V22.344H167.013ZM167.013 17.288V16.288H166.013V17.288H167.013ZM177.957 17.288H178.957V16.288H177.957V17.288ZM175.973 61.832L175.078 61.3848L175.074 61.3934L175.07 61.4021L175.973 61.832ZM170.021 68.232L169.514 67.3697L169.508 67.3733L170.021 68.232ZM147.237 66.824L147.845 66.0302L147.838 66.0252L147.237 66.824ZM141.605 56.712V55.712H140.489L140.611 56.8213L141.605 56.712ZM152.421 56.712L153.391 56.4695L153.202 55.712H152.421V56.712ZM154.853 59.912L155.388 59.0672L155.378 59.0607L155.367 59.0545L154.853 59.912ZM164.965 59.144L164.281 58.4145L164.269 58.4255L164.258 58.4369L164.965 59.144ZM167.013 47.88H168.013V44.467L166.171 47.3403L167.013 47.88ZM162.597 51.976L163.076 52.8539L163.083 52.8497L163.091 52.8455L162.597 51.976ZM148.005 51.272L147.464 52.1132L147.475 52.12L148.005 51.272ZM142.309 44.808L141.409 45.2443L141.413 45.2525L141.417 45.2607L142.309 44.808ZM142.309 25.416L141.417 24.9633L141.412 24.9743L142.309 25.416ZM148.005 19.016L148.535 19.864L148.535 19.864L148.005 19.016ZM164.709 28.68L163.982 29.3673L163.992 29.3774L164.709 28.68ZM153.637 28.68L152.92 27.9826L152.92 27.9829L153.637 28.68ZM153.637 41.608L152.901 42.2855L152.91 42.2955L152.92 42.3054L153.637 41.608ZM164.709 41.608L163.992 40.9106L163.982 40.9208L164.709 41.608ZM156.005 17.776C158.384 17.776 160.411 18.2591 162.118 19.1899L163.076 17.4341C161.027 16.3169 158.66 15.776 156.005 15.776V17.776ZM162.126 19.1943C163.908 20.1446 165.24 21.3719 166.161 22.8681L167.864 21.8199C166.737 19.9881 165.126 18.5274 163.067 17.4296L162.126 19.1943ZM168.013 22.344V17.288H166.013V22.344H168.013ZM167.013 18.288H177.957V16.288H167.013V18.288ZM176.957 17.288V52.936H178.957V17.288H176.957ZM176.957 52.936C176.957 56.0835 176.324 58.8931 175.078 61.3848L176.867 62.2792C178.267 59.4802 178.957 56.3592 178.957 52.936H176.957ZM175.07 61.4021C173.88 63.9008 172.039 65.8873 169.514 67.3697L170.527 69.0943C173.379 67.4194 175.505 65.1392 176.876 62.2619L175.07 61.4021ZM169.508 67.3733C167.057 68.8364 163.939 69.6 160.101 69.6V71.6C164.198 71.6 167.694 70.7849 170.533 69.0907L169.508 67.3733ZM160.101 69.6C154.968 69.6 150.912 68.3805 147.845 66.0302L146.629 67.6178C150.132 70.3021 154.652 71.6 160.101 71.6V69.6ZM147.838 66.0252C144.784 63.7244 143.039 60.6087 142.599 56.6027L140.611 56.8213C141.109 61.3486 143.119 64.9742 146.635 67.6228L147.838 66.0252ZM141.605 57.712H152.421V55.712H141.605V57.712ZM151.451 56.9545C151.86 58.594 152.846 59.8742 154.338 60.7695L155.367 59.0545C154.299 58.4138 153.664 57.5607 153.391 56.4695L151.451 56.9545ZM154.318 60.7568C155.792 61.6906 157.567 62.128 159.589 62.128V60.128C157.856 60.128 156.473 59.7547 155.388 59.0672L154.318 60.7568ZM159.589 62.128C162.056 62.128 164.124 61.3994 165.672 59.8511L164.258 58.4369C163.161 59.534 161.644 60.128 159.589 60.128V62.128ZM165.649 59.8735C167.301 58.3243 168.013 55.9266 168.013 52.936H166.013C166.013 55.6627 165.359 57.4037 164.281 58.4145L165.649 59.8735ZM168.013 52.936V47.88H166.013V52.936H168.013ZM166.171 47.3403C165.2 48.8555 163.852 50.1124 162.103 51.1065L163.091 52.8455C165.096 51.7062 166.693 50.2325 167.855 48.4197L166.171 47.3403ZM162.118 51.0981C160.411 52.0289 158.384 52.512 156.005 52.512V54.512C158.66 54.512 161.027 53.9711 163.076 52.8539L162.118 51.0981ZM156.005 52.512C153.239 52.512 150.758 51.8134 148.535 50.424L147.475 52.12C150.03 53.7172 152.882 54.512 156.005 54.512V52.512ZM148.546 50.4308C146.32 48.9998 144.536 46.9858 143.2 44.3553L141.417 45.2607C142.898 48.1769 144.911 50.4722 147.464 52.1132L148.546 50.4308ZM143.209 44.3717C141.92 41.7133 141.261 38.6241 141.261 35.08H139.261C139.261 38.8745 139.967 42.2707 141.409 45.2443L143.209 44.3717ZM141.261 35.08C141.261 31.5354 141.92 28.4702 143.206 25.8577L141.412 24.9743C139.967 27.9085 139.261 31.2859 139.261 35.08H141.261ZM143.2 25.8687C144.535 23.2402 146.315 21.2511 148.535 19.864L147.475 18.168C144.915 19.7676 142.899 22.0451 141.417 24.9633L143.2 25.8687ZM148.535 19.864C150.758 18.4746 153.239 17.776 156.005 17.776V15.776C152.882 15.776 150.03 16.5708 147.475 18.168L148.535 19.864ZM168.013 35.144C168.013 32.2187 167.184 29.7904 165.425 27.9826L163.992 29.3774C165.305 30.7269 166.013 32.6079 166.013 35.144H168.013ZM165.435 27.9928C163.753 26.2142 161.655 25.312 159.205 25.312V27.312C161.106 27.312 162.678 27.9885 163.982 29.3672L165.435 27.9928ZM159.205 25.312C156.755 25.312 154.642 26.2132 152.92 27.9826L154.353 29.3774C155.704 27.9895 157.302 27.312 159.205 27.312V25.312ZM152.92 27.9829C151.199 29.7531 150.397 32.1637 150.397 35.08H152.397C152.397 32.535 153.088 30.6789 154.354 29.3771L152.92 27.9829ZM150.397 35.08C150.397 37.999 151.2 40.438 152.901 42.2855L154.372 40.9305C153.087 39.5353 152.397 37.6224 152.397 35.08H150.397ZM152.92 42.3054C154.642 44.0748 156.755 44.976 159.205 44.976V42.976C157.302 42.976 155.704 42.2985 154.353 40.9106L152.92 42.3054ZM159.205 44.976C161.655 44.976 163.753 44.0738 165.435 42.2952L163.982 40.9208C162.678 42.2995 161.106 42.976 159.205 42.976V44.976ZM165.425 42.3054C167.184 40.4976 168.013 38.0693 168.013 35.144H166.013C166.013 37.6801 165.305 39.5611 163.992 40.9106L165.425 42.3054ZM217.618 21L216.877 21.6715L216.883 21.6776L216.888 21.6836L217.618 21ZM221.394 53V54H222.394V53H221.394ZM210.514 53H209.514V54H210.514V53ZM208.658 28.04L207.928 28.7232L207.928 28.7232L208.658 28.04ZM198.674 28.04L199.405 28.7232L199.405 28.7232L198.674 28.04ZM196.818 53V54H197.818V53H196.818ZM185.874 53H184.874V54H185.874V53ZM185.874 17.288V16.288H184.874V17.288H185.874ZM196.818 17.288H197.818V16.288H196.818V17.288ZM196.818 22.024H195.818V25.1864L197.636 22.5989L196.818 22.024ZM201.298 18.312L201.729 19.2145L201.737 19.2105L201.745 19.2064L201.298 18.312ZM207.634 17.904C211.575 17.904 214.619 19.1793 216.877 21.6715L218.359 20.3285C215.668 17.3594 212.056 15.904 207.634 15.904V17.904ZM216.888 21.6836C219.187 24.1378 220.394 27.5787 220.394 32.136H222.394C222.394 27.2213 221.084 23.2382 218.348 20.3164L216.888 21.6836ZM220.394 32.136V53H222.394V32.136H220.394ZM221.394 52H210.514V54H221.394V52ZM211.514 53V33.608H209.514V53H211.514ZM211.514 33.608C211.514 31.0481 210.849 28.9177 209.389 27.3568L207.928 28.7232C208.943 29.8077 209.514 31.3892 209.514 33.608H211.514ZM209.389 27.3568C207.932 25.8003 205.987 25.056 203.666 25.056V27.056C205.527 27.056 206.909 27.6344 207.928 28.7232L209.389 27.3568ZM203.666 25.056C201.346 25.056 199.4 25.8003 197.944 27.3568L199.405 28.7232C200.423 27.6344 201.806 27.056 203.666 27.056V25.056ZM197.944 27.3568C196.484 28.9177 195.818 31.0481 195.818 33.608H197.818C197.818 31.3892 198.39 29.8077 199.405 28.7232L197.944 27.3568ZM195.818 33.608V53H197.818V33.608H195.818ZM196.818 52H185.874V54H196.818V52ZM186.874 53V17.288H184.874V53H186.874ZM185.874 18.288H196.818V16.288H185.874V18.288ZM195.818 17.288V22.024H197.818V17.288H195.818ZM197.636 22.5989C198.639 21.1719 199.994 20.0424 201.729 19.2145L200.868 17.4095C198.848 18.3736 197.216 19.7188 196 21.4491L197.636 22.5989ZM201.745 19.2064C203.468 18.345 205.424 17.904 207.634 17.904V15.904C205.151 15.904 202.883 16.4016 200.851 17.4176L201.745 19.2064Z" fill="#46F16C"/>
</svg>
